<?xml version="1.0" encoding="UTF-8" standalone="no"?>
<!-- Created with Inkscape (http://www.inkscape.org/) -->

<svg
   xmlns:dc="http://purl.org/dc/elements/1.1/"
   xmlns:cc="http://creativecommons.org/ns#"
   xmlns:rdf="http://www.w3.org/1999/02/22-rdf-syntax-ns#"
   xmlns:svg="http://www.w3.org/2000/svg"
   xmlns="http://www.w3.org/2000/svg"
   xmlns:sodipodi="http://sodipodi.sourceforge.net/DTD/sodipodi-0.dtd"
   xmlns:inkscape="http://www.inkscape.org/namespaces/inkscape"
   width="141.60184mm"
   height="141.60184mm"
   viewBox="0 0 141.60184 141.60184"
   version="1.1"
   id="svg8"
   inkscape:version="0.92.4 (5da689c313, 2019-01-14)"
   sodipodi:docname="avatar.svg">
  <defs
     id="defs2" />
  <sodipodi:namedview
     id="base"
     pagecolor="#ffffff"
     bordercolor="#666666"
     borderopacity="1.0"
     inkscape:pageopacity="0.0"
     inkscape:pageshadow="2"
     inkscape:zoom="0.24748737"
     inkscape:cx="25.605796"
     inkscape:cy="-49.221773"
     inkscape:document-units="mm"
     inkscape:current-layer="layer1"
     showgrid="false"
     inkscape:snap-nodes="false"
     inkscape:snap-global="false"
     inkscape:window-width="1280"
     inkscape:window-height="772"
     inkscape:window-x="0"
     inkscape:window-y="0"
     inkscape:window-maximized="1"
     fit-margin-top="0"
     fit-margin-left="0"
     fit-margin-right="0"
     fit-margin-bottom="0" />
  <metadata
     id="metadata5">
    <rdf:RDF>
      <cc:Work
         rdf:about="">
        <dc:format>image/svg+xml</dc:format>
        <dc:type
           rdf:resource="http://purl.org/dc/dcmitype/StillImage" />
        <dc:title />
      </cc:Work>
    </rdf:RDF>
  </metadata>
  <g
     inkscape:label="Layer 1"
     inkscape:groupmode="layer"
     id="layer1"
     transform="translate(-44.596017,-33.444468)">
    <g
       id="g880">
      <path
         style="fill:none;fill-opacity:1;stroke:none;stroke-width:1.5084939;stroke-miterlimit:4;stroke-dasharray:none;stroke-opacity:1"
         d="M 73.356733,113.49535 A 45.043805,45.043805 0 0 1 115.09775,65.374933 45.043805,45.043805 0 0 1 163.21817,107.11593 45.043805,45.043805 0 0 1 121.47716,155.23638 45.043805,45.043805 0 0 1 73.356733,113.49535 Z"
         id="path890"
         inkscape:connector-curvature="0" />
      <path
         inkscape:connector-curvature="0"
         id="path10"
         d="m 62.880554,58.508144 a 69.640982,69.640982 0 0 1 98.253626,-6.779156 69.640982,69.640982 0 0 1 6.77915,98.253632 69.640982,69.640982 0 0 1 -98.253633,6.77917 69.640982,69.640982 0 0 1 -6.779143,-98.253646 z"
         style="fill:none;fill-opacity:1;stroke:#030007;stroke-width:3;stroke-miterlimit:4;stroke-dasharray:none;stroke-opacity:1" />
      <g
         id="text894"
         style="font-style:normal;font-weight:normal;font-size:41.64791489px;line-height:1.25;font-family:sans-serif;letter-spacing:0px;word-spacing:0px;fill:#000000;fill-opacity:1;stroke:none;stroke-width:0.43608493"
         transform="matrix(1.0035038,0.56980387,-0.56461786,0.94453309,61.35709,-60.246616)"
         aria-label="Nate's  Place">
        <path
           d="m 139.22835,70.163939 q -0.33687,-0.431211 -0.68947,-0.871077 -0.35261,-0.439866 -0.58091,-1.180362 l 0.0779,-0.14166 -0.0913,-0.132197 q -0.0639,-1.44956 0.40101,-2.854324 0.48067,-1.39611 1.25093,-2.796975 0.38319,-0.547763 0.80337,-1.013688 0.43591,-0.45727 1.09062,-0.75324 1.38499,-0.468397 2.79046,-0.638542 1.41414,-0.185884 2.59231,0.728418 0.38014,0.352511 0.63517,0.820718 0.25502,0.468207 0.34718,1.195341 l -0.14622,1.272519 0.18417,0.224261 -0.38157,0.917631 -1.47856,1.011405 q -1.52822,0.43064 -2.84325,0.138046 -1.29929,-0.283939 -2.57661,-1.129766 l 0.0126,0.08893 0.0488,-0.01417 -0.0472,-0.02596 -0.51928,0.944403 q -0.19283,-0.20852 -0.29901,0.245564 -0.0818,0.446999 -0.0668,1.090724 0.22041,0.531168 0.61315,0.972603 0.40848,0.450089 0.86889,0.805739 0.76337,0.214749 1.52593,0.244565 0.77121,0.01408 1.63131,-0.394452 l 0.72081,-0.341621 0.67682,0.37215 -0.0141,0.771215 -0.74515,0.758709 -0.87351,0.13467 -0.43986,0.352606 q -1.25516,0.232296 -2.36006,0.116742 -1.10489,-0.115554 -2.11858,-0.918915 z m 5.47968,-5.678498 1.29686,-0.270862 0.15974,-0.178657 0.27214,-1.203282 -0.31485,-0.583095 -0.12906,0.01103 -0.65875,-0.628699 q -0.77202,-0.19901 -1.69274,-0.0903 -0.90499,0.117361 -1.81938,0.475531 -0.24866,0.191258 -0.47606,0.4557 -0.21166,0.273097 -1.10237,1.259252 l 0.26425,-1.41261 1.57401,0.865465 -0.12982,0.236101 1.31037,0.823001 z m -13.2827,2.759762 q -1.02636,-0.390305 -1.77164,-1.145269 -0.74528,-0.754964 -1.0709,-2.019938 -0.4166,-1.029848 -0.15975,-2.172345 0.27403,-1.137225 0.70124,-2.283784 0.54741,-1.109651 1.36172,-1.987028 0.81959,-0.894549 1.83077,-1.617527 0.86612,-0.372926 1.73102,-0.558322 0.86491,-0.185396 1.81717,-0.04333 0.45578,0.290271 0.82707,0.610967 0.38846,0.325968 0.65957,0.972919 l 0.16701,1.047163 0.21838,0.818663 -0.77876,0.700392 -0.53231,-0.163446 -0.74286,-1.130025 0.18483,-0.112362 q -0.0542,-0.129391 -0.25109,-0.283789 -0.19159,-0.17157 -0.45714,-0.347058 -0.601,-0.184536 -1.22821,-0.0389 -0.61005,0.150909 -1.27809,0.490704 -0.94776,0.761239 -1.55859,1.83263 -0.58838,1.059491 -0.97327,2.312997 l 0.1673,1.535796 q 0.33588,0.741998 0.98989,1.243454 0.67645,0.489558 1.50067,0.742636 0.70402,0.21617 1.41695,-0.147422 0.71293,-0.363591 1.76536,-0.547777 l 0.44568,1.057565 -0.64004,0.799357 q -1.09191,0.435129 -2.16151,0.614041 -1.04717,0.167014 -2.18047,-0.180968 z m -11.12098,-1.870397 q -0.36398,-0.160055 -0.76373,-0.323429 -0.38187,-0.161714 -0.63447,-0.744386 -0.3022,-1.020228 -0.40102,-2.09374 -0.0988,-1.073513 0.007,-2.218196 0.11452,-1.234112 0.42542,-2.251565 0.31255,-1.035338 0.93746,-2.131889 l 0.10731,0.01 0.0474,-0.121881 q 0.75011,-1.084932 1.60015,-1.691559 0.86793,-0.604967 1.96265,-0.737895 0.51001,0.335964 0.91105,0.679854 0.42059,0.327665 0.70398,0.967314 0.16189,0.393856 0.31714,0.859256 0.17314,0.467059 0.177,1.008609 l -0.0361,0.195082 0.17055,0.106026 -0.0631,0.679656 q -0.17831,0.560724 -0.22681,1.277811 -0.0306,0.718747 -0.14901,1.411309 0.0929,0.748251 0.33391,1.456123 0.25887,0.709531 0.49193,1.308429 l 0.88026,0.622878 0.0264,0.687955 -0.51428,1.070738 -0.67965,-0.06307 -1.59604,-2.240715 0.16097,0.01494 -0.22347,-0.50781 -0.55299,0.904788 -0.28618,-0.02656 -0.0481,0.518685 q -0.67948,0.712653 -1.45429,1.091745 -0.75526,0.362866 -1.63166,0.281538 z m 1.64293,-1.958185 q 0.57014,-0.506323 1.06247,-1.146145 0.51021,-0.638162 0.82903,-1.54664 0.20745,-0.485862 0.24138,-1.24038 0.0339,-0.754518 0.0725,-1.364291 l -0.0983,-0.496191 0.0902,-0.388506 -0.56365,-2.090792 -0.255,-0.167982 q -0.53861,0.166495 -1.16867,0.54098 -0.6284,0.356599 -1.13732,1.175277 -0.605,0.881923 -0.85597,2.031214 -0.23142,1.133065 -0.32972,2.386723 l 0.34902,2.070875 q 0.14603,0.175909 0.38813,0.288574 0.25999,0.114324 0.40436,0.308119 z m -7.00646,2.50466 q -0.71858,-0.280947 -0.74431,-0.71128 -0.0268,-0.448263 -0.0493,-0.824804 l 0.13196,-3.210926 -0.14588,-0.333177 q 0.18526,-2.62029 0.0298,-5.220216 -0.15649,-2.617856 0.25329,-5.395524 l 0.87723,-0.376342 0.85453,0.146859 0.21019,1.409008 -0.0287,3.132773 0.12688,0.316318 q -0.16197,2.708871 -0.18372,5.355376 -0.005,2.627503 -0.31137,5.327019 z m -9.35691,2.064862 -0.41537,-0.223114 -0.40689,-0.867961 q -0.39784,-2.964331 -0.97885,-5.926066 -0.56722,-2.983069 -1.08553,-5.995016 l -0.37708,-1.499017 0.0448,-0.817993 q 0.59427,-0.825781 1.33058,-1.075787 0.75009,-0.27134 1.40731,-0.632964 1.00988,-0.0883 2.00479,0.01034 1.0087,0.0773 2.01647,0.834579 0.57873,0.812679 1.00318,1.676868 0.42445,0.864189 0.65455,1.935472 0.14098,0.998561 -0.0154,1.895644 -0.14261,0.875749 -0.50598,1.835657 l -0.0765,0.07155 0.0226,0.105372 q -0.46002,0.852063 -1.09849,1.044313 -0.63848,0.19225 -1.20282,0.644158 l -0.21581,-0.06388 -1.21908,0.739513 -0.35631,-0.0337 -0.65227,0.213584 q 0.12224,1.167936 0.47044,2.618039 0.3482,1.450103 0.23849,2.906697 z m 2.98387,-9.459524 0.53533,-0.758006 q 0.2481,-0.641197 0.28416,-1.328711 0.0361,-0.687515 -0.209,-1.571862 -0.16208,-0.497982 -0.44331,-0.951999 -0.28124,-0.454016 -0.54114,-0.894243 -0.38272,-0.156638 -0.86703,-0.273082 -0.46675,-0.120217 -0.72394,-0.120095 l -0.0301,0.116688 -1.38375,0.05837 q -0.2784,0.243516 -0.66346,0.418082 -0.38507,0.174566 -0.56434,0.451908 0.21277,1.589424 0.53599,3.26536 0.34078,1.672163 0.60364,3.067107 l 0.82542,-0.177284 q 0.7363,-0.250006 1.3835,-0.572734 0.64343,-0.340291 1.25798,-0.729495 z M 92.475683,74.064458 q -0.828811,0.107766 -1.650823,0.564235 -0.811549,0.47107 -1.933086,0.324538 l -0.02093,-0.0292 -0.0438,0.03139 q -0.844124,-0.345328 -1.479464,-0.707682 -0.62074,-0.372818 -1.185739,-1.161253 -0.04889,-0.561625 0.215873,-0.839749 0.264762,-0.278125 0.585976,-0.50831 0.699594,0.05113 1.057284,0.457759 0.35769,0.406631 0.629727,0.786248 l 0.269612,0.16037 q 0.666017,-0.0574 1.346397,-0.279786 0.694981,-0.232847 1.383637,-0.505359 0.292013,-0.209259 0.462608,-0.618789 0.185196,-0.419993 0.278651,-0.752146 l -0.209259,-0.292013 0.146006,-0.104629 -0.125555,-0.175208 0.204409,-0.146481 -0.330914,-0.646804 -0.8631,-0.464322 -0.248211,0.177871 -0.125555,-0.175208 -0.160608,0.115092 -0.17787,-0.248211 -1.17509,0.333814 -0.193708,0.315601 -0.110718,-0.03115 -0.04161,0.09612 q -0.778447,0.270561 -1.370986,0.584687 -0.603002,0.299525 -1.485842,0.578599 l -0.125555,-0.175208 -0.177395,0.06083 q -0.595439,-0.21416 -1.120062,-0.545363 -0.510022,-0.341666 -0.826335,-0.998932 -0.299763,-0.757522 -0.503409,-1.473429 -0.203646,-0.715906 -0.186331,-1.678549 l 0.146006,-0.104629 -0.05108,-0.626353 q 0.366017,-0.969443 0.895303,-1.680211 0.518824,-0.725369 1.507768,-1.257267 0.348703,-0.0068 0.701306,-0.193182 0.342141,-0.200984 0.924929,-0.06615 l 0.194421,0.147956 0.465508,-0.0905 q 0.522198,0.111955 0.954842,0.37648 0.422181,0.249924 0.838274,0.614703 l 0.03795,0.237985 0.543836,0.604715 0.102917,0.390317 -0.484773,1.142938 q -0.523911,0.132355 -0.916653,0.01602 -0.388604,-0.141394 -0.461845,-0.243599 l -0.0876,0.06278 -1.396473,-1.054436 q -0.344565,-0.01826 -0.72442,0.09925 -0.375716,0.09245 -0.698881,0.41243 l -0.728371,1.604783 q 0.0029,0.528286 0.191707,1.100136 0.188808,0.57185 0.544548,1.068273 l 0.647516,0.132644 q 0.978719,-0.391979 2.000765,-1.124385 1.036646,-0.74287 2.442158,-0.60095 0.921266,0.267951 1.821843,0.661219 0.890114,0.378668 1.507427,1.240106 0.155469,0.61784 0.214821,1.194066 0.05935,0.576225 -0.02949,1.192352 -0.266,0.831474 -0.601103,1.53568 -0.320502,0.693743 -1.21138,1.177464 z m -13.091945,-1.95749 -1.042403,-1.091034 -0.584073,-1.187661 -0.724353,0.03022 -0.857009,-0.619035 -0.432217,-1.135199 0.10121,-1.129392 0.407252,-0.07178 0.0033,-0.304816 1.041179,0.03674 0.847765,0.30138 0.299838,0.460543 0.674063,2.255624 0.227783,0.07869 0.453747,1.491094 z m 2.127744,11.799074 q -0.474356,0.272778 -0.959497,0.559921 -0.485141,0.287143 -1.250409,0.408882 l -0.129279,-0.09707 -0.143738,0.07177 q -1.444113,-0.140875 -2.769398,-0.799007 -1.3145,-0.672497 -2.592923,-1.632375 -0.488338,-0.456507 -0.890443,-0.938117 -0.39132,-0.495973 -0.592134,-1.185841 -0.268675,-1.437145 -0.239183,-2.852577 0.01513,-1.426217 1.086245,-2.463883 0.402534,-0.326704 0.901991,-0.513249 0.499458,-0.186545 1.232323,-0.175379 l 1.239243,0.323984 0.247963,-0.150754 0.854747,0.506998 0.793091,1.606271 q 0.211122,1.57363 -0.263758,2.834347 -0.464095,1.246354 -1.481383,2.391823 l 0.08981,4.8e-5 -0.0072,-0.0503 -0.03236,0.04309 0.861858,0.647108 q -0.233598,0.161539 0.201005,0.330618 0.431024,0.143929 1.07045,0.219711 0.556915,-0.143405 1.049262,-0.470061 0.503132,-0.341021 0.920078,-0.746753 0.320118,-0.725516 0.457032,-1.476277 0.122549,-0.761547 -0.160776,-1.670601 l -0.236701,-0.761737 0.463761,-0.617665 0.761547,0.12255 0.646202,0.844582 0.01031,0.883762 0.287142,0.48514 q 0.05321,1.275368 -0.216799,2.352977 -0.27001,1.077608 -1.208127,1.968052 z m -4.850171,-6.224796 -0.08552,-1.322088 -0.154381,-0.1833 -1.152961,-0.438898 -0.621626,0.229591 -0.0073,0.129326 -0.715208,0.563644 q -0.305754,0.736301 -0.327801,1.663156 -0.01126,0.912491 0.214558,1.868217 0.154333,0.273113 0.384114,0.535488 0.240566,0.24801 1.091448,1.268734 l -1.361315,-0.460564 1.078514,-1.43643 0.215465,0.161778 0.999344,-1.181404 z m 0.110084,14.574596 q -0.420765,0.218737 -0.745749,0.06562 -0.341234,-0.160778 -0.617471,-0.290931 -1.449928,-0.842008 -2.946731,-1.626675 -1.496802,-0.784667 -2.995478,-1.649643 l -0.282956,-0.07375 -0.618407,-0.331085 q -0.244994,0.519975 -0.667952,1.333373 -0.431551,0.789493 -1.376358,1.277588 l -0.584972,-0.275618 -0.411534,-1.1073 0.183745,-0.389981 1.176842,-1.907718 Q 66.328152,86.858794 65.288202,86.368806 64.232003,85.871161 63.288771,85.04947 l 0.281559,-1.019016 1.442592,0.183287 2.564405,1.42668 0.734983,-1.559925 0.131568,-1.248538 0.854968,-0.55028 1.023701,0.482332 q 0.06155,1.260102 -0.397816,2.235055 -0.451708,0.958704 -0.715922,1.688044 1.780695,0.898571 3.758255,1.969324 1.985215,1.054504 3.790593,2.322121 0.298109,0.378737 0.297949,0.716222 0.0075,0.321236 -0.284211,0.561066 z m -2.685877,9.703888 q -0.21014,0.33755 -0.428648,0.71004 -0.214324,0.35502 -0.826972,0.52228 -1.052811,0.1542 -2.129474,0.0995 -1.076663,-0.0547 -2.194646,-0.32246 -1.205325,-0.28868 -2.16829,-0.74097 -0.980435,-0.45647 -1.977086,-1.23082 l 0.0251,-0.10481 -0.113911,-0.0642 q -0.967365,-0.896636 -1.447077,-1.824235 -0.475529,-0.945068 -0.451589,-2.047567 0.405011,-0.457113 0.802388,-0.805231 0.384092,-0.369771 1.057513,-0.559421 0.412861,-0.104292 0.895595,-0.191849 0.486919,-0.105026 1.023524,-0.03192 l 0.18797,0.06349 0.129181,-0.153766 0.663802,0.158987 q 0.529705,0.256162 1.232628,0.406048 0.707107,0.132417 1.375826,0.347992 0.753862,0.01432 1.48879,-0.123656 0.739111,-0.155446 1.365044,-0.301059 l 0.741615,-0.782845 0.684722,0.07164 0.986817,0.661174 -0.158986,0.663802 -2.444729,1.261522 0.03765,-0.157216 -0.534406,0.149063 0.817049,0.675924 -0.06694,0.279496 0.506585,0.121332 q 0.608894,0.773834 0.874068,1.594635 0.25189,0.79915 0.04688,1.65511 z m -1.70492,-1.90446 Q 71.960407,99.418985 71.397017,98.840755 70.837811,98.245057 69.98384,97.800407 69.532377,97.526042 68.790333,97.385258 68.048289,97.244473 67.450177,97.119691 l -0.50512,0.02678 -0.371755,-0.144451 -2.14966,0.260902 -0.202506,0.228556 q 0.08829,0.556792 0.369467,1.233664 0.263708,0.672689 1.001783,1.292758 0.787029,0.72415 1.88901,1.13585 1.088696,0.39004 2.315673,0.66544 l 2.099454,-0.0513 q 0.194871,-0.11956 0.340787,-0.3432 0.1501,-0.2411 0.36244,-0.35648 z m 1.208915,6.33855 -0.606611,0.44889 -0.448857,-0.0136 -0.0033,0.10773 0.251361,0.008 -0.07779,0.19533 -0.560385,0.10884 -0.0022,0.0718 -0.779638,0.22801 -0.0065,0.21546 -0.394995,-0.0119 -0.07453,0.0876 -3.37317,1.01217 q -0.0065,0.21545 -0.349277,0.259 -0.360716,0.043 -0.541345,0.0735 l -0.452659,0.1121 -0.006,0.1975 -0.179543,-0.005 -0.0011,0.0359 -0.37867,0.0425 -0.0027,0.0898 -0.396624,0.0419 -0.0016,0.0539 -0.561471,0.14476 -0.0027,0.0898 -0.96081,0.27644 -0.0027,0.0898 -1.161022,0.36025 -0.0038,0.12568 -1.141982,0.32487 -0.01955,0.64636 -0.987015,-1.23389 q 3.086513,0.14726 5.990226,0.39681 2.886301,0.23106 6.131146,0.49093 l -0.0049,0.16159 0.124594,0.0397 0.496783,0.80574 q -0.751874,0.49841 -1.201275,0.50279 -0.467355,0.004 -0.86235,-0.008 -3.133318,-0.38229 -6.346598,-0.49745 -3.230691,-0.13365 -6.454867,-0.48275 l -0.708941,-0.32694 0.02715,-0.89772 1.25731,-0.57298 0.868323,-0.18938 0.0027,-0.0898 1.141982,-0.32487 0.0027,-0.0898 3.08753,-1.07472 0.0027,-0.0898 4.60981,-1.49592 0.0011,-0.0359 1.102273,-0.20029 -0.574538,-0.0174 -4.829712,-0.14607 -3.622429,-0.25332 -0.665395,0.0158 q -0.483681,-0.0506 -0.950493,-0.0647 -0.484767,-0.0147 -1.103394,-0.35685 l -0.211143,-0.74318 0.482016,-0.48861 0.973335,-0.0964 1.704031,0.10544 0.127309,-0.0501 2.652352,0.24196 0.450487,-0.0403 5.615358,0.31359 1.239934,0.002 q 0.483681,0.0506 1.004356,0.0663 0.502721,0.0152 1.087611,0.28448 z"
           style="font-style:normal;font-variant:normal;font-weight:bold;font-stretch:normal;font-size:18.39362907px;font-family:mikachan-puchiB;-inkscape-font-specification:'mikachan-puchiB Bold';fill:#000000;stroke-width:0.43608493"
           id="path1554"
           inkscape:connector-curvature="0" />
      </g>
      <g
         id="text936"
         style="font-style:normal;font-weight:normal;font-size:17.05849457px;line-height:94.99999881%;font-family:sans-serif;letter-spacing:0px;word-spacing:0px;fill:#000000;fill-opacity:1;stroke:none;stroke-width:0.4264622"
         transform="matrix(1.0060064,0,0,0.99402946,-0.35317196,6.3500003)"
         aria-label="Keeping It Simple">
        <path
           d="m 131.00974,152.9353 q -0.46645,-0.19991 -0.94955,-0.39981 -0.4831,-0.19991 -0.99952,-0.69967 v -0.14993 l -0.13327,-0.0666 q -0.69966,-1.14945 -0.94954,-2.4988 -0.23323,-1.34936 -0.23323,-2.83198 0.0666,-0.61637 0.19991,-1.18277 0.14993,-0.56639 0.54973,-1.09947 0.91623,-0.99952 1.98239,-1.76582 1.06615,-0.78296 2.43217,-0.5664 0.46644,0.11662 0.88291,0.38315 0.41646,0.26654 0.81627,0.81628 l 0.44979,1.09947 0.24988,0.1 0.1,0.91622 -0.74964,1.48263 q -1.0495,1.03283 -2.24892,1.38267 -1.18277,0.34983 -2.59876,0.23322 l 0.05,0.0666 0.0333,-0.0333 h -0.05 v 0.99952 q -0.24988,-0.0833 -0.13327,0.33317 0.13327,0.39981 0.43312,0.91623 0.41647,0.33317 0.93289,0.51642 0.53308,0.18324 1.06616,0.26654 0.71632,-0.16659 1.34935,-0.48311 0.63303,-0.33317 1.14945,-1.04949 l 0.43313,-0.59971 h 0.71632 l 0.33317,0.63303 -0.26654,0.94954 -0.64968,0.49976 -0.19991,0.4831 q -0.91623,0.74964 -1.86577,1.14945 -0.94955,0.39981 -2.13231,0.19991 z m 1.91575,-7.06329 0.93288,-0.79961 0.05,-0.21657 -0.31652,-1.09947 -0.51642,-0.33317 -0.1,0.0666 -0.81627,-0.21656 q -0.71633,0.18324 -1.41599,0.683 -0.68301,0.49977 -1.26606,1.19943 -0.11661,0.26654 -0.18325,0.58305 -0.05,0.31652 -0.33317,1.51594 l -0.41647,-1.26606 h 1.66587 v 0.24988 l 1.43265,0.0833 z m -8.07947,7.76295 q -0.64969,-0.29986 -0.64969,-0.69966 0,-0.41647 0,-0.7663 l 0.29986,-2.96525 -0.11661,-0.31651 q 0.31651,-2.41551 0.31651,-4.83102 0,-2.43217 0.53308,-4.98095 l 0.83294,-0.29986 0.78295,0.18325 0.11662,1.31603 -0.19991,2.89862 0.1,0.29985 q -0.29985,2.49881 -0.46644,4.94763 -0.14993,2.43217 -0.58305,4.91431 z m -9.14562,1.89909 -0.51642,-0.31651 -0.14992,-0.94955 q 0.28319,-1.63255 0.38315,-3.41503 0.1,-1.78248 0.33317,-3.61493 v -3.9148 l -0.18325,-1.1661 0.26654,-0.5664 0.74964,-0.14993 q 0.53308,0.51642 0.5664,1.19943 0.0333,0.66635 0.0333,0.4831 h 0.71632 l 0.05,-0.0167 v -0.13327 l 1.19942,-0.58305 0.23322,0.11661 0.39981,-0.0833 q 0.66635,0.11661 1.19943,0.34983 0.53308,0.23322 1.21608,0.94954 v 0.0333 q 0.61637,0.86625 0.78296,1.78248 0.16659,0.91623 0.0666,1.91575 -0.0833,0.66635 -0.34983,1.21608 -0.24988,0.54974 -0.66635,1.08282 l -0.11661,0.05 v 0.11661 q -0.7663,0.71633 -1.54925,0.91623 -0.78296,0.19991 -1.68253,0.11661 -0.49976,-0.1 -1.09947,-0.14993 -0.58306,-0.0666 -0.59972,-0.0833 -0.0666,0.68301 -0.21656,1.91575 -0.14993,1.23274 -0.44978,2.59875 z m 5.06424,-6.66347 0.69967,-0.93289 0.1999,-1.21608 -0.24988,-1.48263 h -0.05 l -0.8496,-1.03284 v -0.0833 l -0.99952,-0.26654 q -0.44978,0.19991 -0.93288,0.58306 -0.46645,0.38315 -0.94955,0.78295 l -0.24988,0.46645 q -0.1999,0.63303 -0.23322,1.41599 -0.0333,0.78295 -0.0833,1.34935 l 0.1,0.1 0.53308,0.64969 2.03236,0.14993 z m -13.79339,4.26462 q -0.29985,-0.56639 -0.31651,-1.09947 -0.0167,-0.54974 -0.0167,-1.19943 l 0.0833,-1.38267 v -6.8967 l 0.49976,-1.4493 0.73298,0.54974 q 0.19991,0.63303 0.19991,0.73298 0.0167,0.0833 0.56639,0.13327 l -0.83293,0.81627 h 0.0333 v -0.0333 l 0.23322,-0.48311 q 0.31651,-0.51642 0.71632,-0.89957 0.39981,-0.3998 1.03284,-0.1999 l 0.73298,0.84959 0.0333,0.29986 -0.13327,0.49976 q 0.54974,-0.83293 1.14945,-1.31604 0.59971,-0.4831 1.43265,-0.64968 l 0.78296,1.08281 0.46644,1.98238 h 0.18324 v 3.84816 l -0.0833,3.03188 0.0833,0.63303 -0.31651,0.98286 -0.91623,0.16659 q -0.23322,-0.56639 -0.2832,-1.0495 -0.05,-0.4831 0,-0.99952 l 0.11661,-4.53116 q -0.0666,-0.64969 -0.0999,-1.3327 -0.0167,-0.683 -0.0833,-0.9662 h -0.13327 l -0.0666,-0.54974 -0.13327,-0.05 q -0.23323,0.14993 -0.5664,0.58305 -0.33317,0.41647 -0.61637,0.96621 -0.34983,1.48262 -0.38315,3.31507 -0.0333,1.83246 -0.21656,3.51499 -0.14993,0.41646 -0.38315,0.51642 -0.23323,0.0833 -0.66635,0.0833 -0.19991,-0.61637 -0.23322,-1.19943 -0.0167,-0.59971 -0.0167,-1.11613 0.18324,-1.13279 0.18324,-2.44882 0,-1.3327 0,-2.71537 l -0.16658,-1.26606 -0.0833,-0.05 -0.63303,1.01618 q -0.56639,1.48263 -0.71632,3.43169 -0.14993,1.94907 -0.14993,4.09804 l -0.1999,0.14993 -0.0666,0.38315 z m -3.98142,0 q -0.34984,-0.43313 -0.34984,-0.91623 0,-0.49976 0,-0.89957 0.23323,-1.49928 0.23323,-3.11517 0,-1.61589 0.74964,-3.16515 h 0.71632 q 0.53308,0.21656 0.58305,0.61637 0.05,0.38315 0.05,0.74964 l -0.24988,0.68301 v 3.11517 l 0.0666,0.74964 q -0.0833,0.54974 -0.28319,0.96621 -0.19991,0.41646 -0.39981,0.93288 -0.24988,0.23322 -0.4831,0.31652 -0.23323,0.0833 -0.63303,-0.0333 z m 1.28272,-9.62872 -0.38315,-0.18325 q -0.23323,-0.28319 -0.44979,-0.56639 -0.1999,-0.2832 -0.0666,-0.74964 l 0.41646,-0.64969 0.86626,-0.1999 0.99952,0.54973 0.34983,0.89957 -0.38315,0.54974 q -0.31652,0.18324 -0.59971,0.31651 -0.2832,0.13327 -0.74964,0.0333 z m -8.112785,10.29507 q -0.449784,-0.33318 -0.816276,-0.66635 -0.349832,-0.31651 -0.732982,-0.84959 -0.349832,-0.73298 -0.566395,-1.5326 -0.216563,-0.81628 -0.24988,-1.86577 l 0.832934,-0.53308 0.466443,0.66635 q 0.13327,0.66634 0.199904,1.21608 0.08329,0.53308 0.299857,0.99952 l 0.699665,0.9662 1.815796,0.1 q 0.416468,-0.14993 0.832935,-0.46645 0.433126,-0.31651 0.799617,-0.78296 0.266537,-0.4831 0.449787,-0.99952 0.1999,-0.53307 0.13327,-1.13279 l -0.466447,-1.03284 q -0.799617,-1.04949 -2.049018,-0.91622 -1.249401,0.11661 -2.332216,-1.03284 -0.366491,-0.5664 -0.549737,-1.14945 -0.166587,-0.59971 -0.299856,-1.34935 l 0.06663,-0.11662 -0.04998,-1.18276 q 0.133269,-0.58306 0.366491,-1.06616 0.233221,-0.49976 0.466443,-0.9662 0.516419,-0.5664 1.082815,-0.93289 0.566395,-0.38315 1.182766,-0.58305 0.716324,0 1.216084,0.24988 0.51642,0.24988 0.999522,0.98286 v 0.51642 h 0.116613 v -0.34983 h 0.0999 v 0.16658 h 0.0167 l 0.64969,1.31604 0.21656,1.23274 -0.31652,0.69967 -0.56639,0.1999 q -0.333174,-0.38315 -0.38315,-0.71632 -0.03332,-0.33318 -0.116611,-0.71632 l 0.04998,-0.0666 q -0.149928,-0.41647 -0.483102,-0.86625 -0.333174,-0.46644 -0.616371,-0.83294 l -0.533078,-0.13327 q -0.533078,0.14993 -1.049498,0.43313 -0.516419,0.26654 -0.916227,0.9662 -0.116611,0.29986 -0.233222,0.58306 -0.09995,0.2832 -0.04998,0.63303 0.04998,0.51642 0.166587,0.99952 0.116611,0.4831 0.349832,0.81628 1.082815,0.71632 2.515462,0.81627 1.432648,0.0833 2.415508,2.11565 0.18325,0.38315 0.24988,0.79962 0.0833,0.39981 0.0833,0.86625 -0.13327,0.93289 -0.3998,1.69919 -0.26654,0.7663 -0.7663,1.38267 -0.899572,1.03284 -1.999045,1.26606 -1.082815,0.24988 -2.298899,0.14993 z M 147.7184,132.14059 q -0.34983,-0.26654 -0.34983,-0.59971 0,-0.34983 0,-0.63303 0.13327,-1.54926 0.1999,-3.11518 0.0666,-1.56591 0.1999,-3.16515 l -0.05,-0.26653 0.0333,-0.64969 q -0.53308,0 -1.38267,-0.0333 -0.83294,-0.05 -1.6159,-0.64969 v -0.59971 l 0.7663,-0.78296 h 0.39981 l 2.06568,0.23322 q 0.13327,-0.63303 0.13327,-1.69918 0,-1.08282 0.31651,-2.19895 l 0.96621,-0.16659 0.41646,1.28272 -0.18324,2.71537 h 1.59923 l 1.09947,-0.38315 0.79962,0.49976 v 1.04949 q -1.03284,0.54974 -2.03236,0.54974 -0.98286,0 -1.69918,0.0666 -0.05,1.84911 -0.16659,3.93145 -0.1,2.08233 -0.44979,4.09803 -0.1999,0.39981 -0.4831,0.53308 -0.26654,0.13327 -0.58305,-0.0167 z m -10.82815,0.36649 -0.53308,-0.39981 v -0.7663 l 0.58306,-0.59971 1.7325,-0.16658 q 0.16659,-1.48263 0.33318,-3.19847 0.18324,-1.73251 0.18324,-3.46501 l -0.1,-0.63303 0.1,-0.11661 v -3.21513 l -1.13279,-0.13327 -0.13327,0.13327 q -0.4831,-0.18324 -0.73298,-0.43312 -0.24988,-0.24988 -0.11661,-0.78296 l 0.24988,-0.4831 q 1.03284,-0.31652 2.06568,-0.26654 1.04949,0.05 2.04901,0.05 l 0.68301,0.0833 1.38267,-0.0833 0.53308,0.23323 0.24988,0.78295 -0.5664,0.81628 -0.83293,0.21656 q -0.4831,-0.28319 -0.98286,-0.28319 -0.4831,0 -0.7663,0 l -0.0833,0.86625 0.1,0.24988 q -0.1,2.36553 -0.18325,4.73106 -0.0833,2.36554 -0.44978,4.54783 l 0.05,0.26653 q 0.74964,0 1.69919,0.05 0.9662,0.05 2.04902,0.38315 l 0.13327,0.9662 -1.28272,0.64969 -0.33318,-0.18324 h -3.89813 z m -11.11134,2.28224 -1.03284,-0.63303 -0.05,-0.21656 -0.16658,-0.0666 q -0.24988,-0.44979 -0.3665,-0.91623 -0.1,-0.44979 -0.1,-0.96621 l 0.69967,-1.5326 0.93288,-0.89956 v -0.14993 q 0.54974,-0.61637 1.08282,-0.91623 0.54973,-0.31652 0.93288,-0.49976 l 0.0167,-0.46644 h -0.23322 q -0.0167,0 -0.74964,0.33317 -0.71632,0.31651 -1.61589,0.39981 -0.44979,-0.21657 -0.78296,-0.63303 -0.31651,-0.43313 -0.54974,-0.91623 l -0.11661,-1.49928 q 0.05,-1.08282 0.41647,-1.91575 0.38315,-0.83293 1.01618,-1.64921 0.4831,-0.43313 1.01618,-0.81628 0.53308,-0.38315 1.29938,-0.24988 l 0.86625,0.58306 v -0.0666 h 2.19895 l -0.79962,0.63303 0.29985,0.44979 -0.11661,0.14993 0.05,0.34983 q -0.13327,1.31603 -0.4831,2.44882 -0.34983,1.11614 -0.33318,1.63256 h 1.66587 q -0.4831,-0.58306 -0.31651,-0.43313 0.16658,0.14993 0.89957,-0.0666 l 0.43312,0.3998 0.11661,0.43313 -0.43312,0.88291 q -0.74964,0.18325 -1.34936,0.43313 -0.59971,0.23322 -1.03283,0.4831 0.05,1.21608 -0.11662,2.39885 -0.16658,1.18277 -0.78295,2.28224 -0.36649,0.36649 -0.7663,0.683 -0.38315,0.31652 -0.86625,0.43313 l -0.66635,-0.0833 z m 0.7663,-1.78248 q 0.31651,-0.21656 0.51642,-0.53307 0.21656,-0.29986 0.38315,-0.74965 l 0.16658,-1.66586 h -0.51642 l -0.28319,0.18324 v 0.1 l -0.46645,0.64969 q -0.33317,0.14993 -0.54973,0.49976 -0.19991,0.33318 -0.34984,0.63303 l -0.0666,0.39981 0.26654,0.61637 0.1,0.0666 0.33317,-0.0833 0.1,0.0666 z m 0.46644,-7.16323 0.29986,-0.38315 0.66634,-0.79962 0.05,-0.29985 -0.13327,-0.66635 0.11661,-0.73298 -0.11661,-0.26654 q -0.21656,-0.13327 -0.44978,-0.36649 -0.23323,-0.23323 -0.43313,-0.23323 -0.33317,0.0666 -0.66635,0.43313 -0.33317,0.34983 -0.71632,0.66635 -0.33317,0.53308 -0.53308,1.13279 -0.18324,0.58305 -0.11661,1.33269 l 0.18325,0.54974 h 0.21656 v 0.21656 l 0.46644,0.1 z m -11.4112,6.48023 q -0.38315,-0.49976 -0.38315,-1.06616 0,-0.56639 0,-1.08281 0.1,-1.66587 0.21657,-3.33174 0.11661,-1.68253 0.11661,-3.43169 l -0.11661,-0.78296 0.53307,-0.89957 H 116.55 l 0.2832,0.26654 q 0.26654,0.61637 0.29985,0.84959 0.0333,0.23323 0.36649,1.03284 0.11661,-0.63303 0.24988,-0.7663 0.14993,-0.13327 0.61638,-0.56639 l 2.09899,-0.69967 1.21608,0.86626 0.0833,0.29985 0.1999,0.11661 q 0.69967,1.68253 0.7663,3.53164 0.0833,1.84912 0.19991,3.64826 l -0.23323,1.29937 -0.98286,0.5664 -0.43312,-0.39981 -0.18325,-1.26606 0.0833,-2.48214 -0.0833,-0.19991 0.0833,-0.98286 q -0.0833,-0.89957 -0.24988,-1.68253 -0.14992,-0.79961 -0.59971,-1.28272 l -0.58305,-0.0833 q -0.34984,0.24988 -0.81628,0.54974 -0.44978,0.29985 -0.84959,0.7663 -0.7663,1.39933 -0.98286,3.2651 -0.21657,1.84911 -0.63303,3.8315 z m -4.08138,0 q -0.34983,-0.43313 -0.34983,-0.91623 0,-0.49976 0,-0.89957 0.23322,-1.49928 0.23322,-3.11517 0,-1.6159 0.74964,-3.16515 h 0.71633 q 0.53308,0.21656 0.58305,0.61637 0.05,0.38315 0.05,0.74964 l -0.24988,0.683 v 3.11518 l 0.0666,0.74964 q -0.0833,0.54974 -0.2832,0.9662 -0.1999,0.41647 -0.3998,0.93289 -0.24988,0.23322 -0.48311,0.31651 -0.23322,0.0833 -0.63303,-0.0333 z m 1.28272,-9.62872 -0.38315,-0.18325 q -0.23322,-0.2832 -0.44978,-0.56639 -0.19991,-0.2832 -0.0666,-0.74965 l 0.41647,-0.64968 0.86625,-0.19991 0.99952,0.54974 0.34984,0.89957 -0.38315,0.54973 q -0.31652,0.18325 -0.59972,0.31652 -0.28319,0.13327 -0.74964,0.0333 z m -9.89526,12.02757 -0.51642,-0.31652 -0.14992,-0.94954 q 0.28319,-1.63255 0.38315,-3.41503 0.1,-1.78248 0.33317,-3.61494 v -3.91479 l -0.18325,-1.16611 0.26654,-0.56639 0.74964,-0.14993 q 0.53308,0.51642 0.5664,1.19943 0.0333,0.66634 0.0333,0.4831 h 0.71632 l 0.05,-0.0167 V 122.162 l 1.19942,-0.58306 0.23322,0.11662 0.39981,-0.0833 q 0.66635,0.11661 1.19943,0.34983 0.53307,0.23323 1.21608,0.94955 v 0.0333 q 0.61637,0.86625 0.78296,1.78248 0.16659,0.91622 0.0666,1.91575 -0.0833,0.66634 -0.34983,1.21608 -0.24988,0.54974 -0.66635,1.08281 l -0.11661,0.05 v 0.11661 q -0.7663,0.71632 -1.54925,0.91623 -0.78296,0.1999 -1.68253,0.11661 -0.49976,-0.1 -1.09948,-0.14993 -0.58305,-0.0666 -0.59971,-0.0833 -0.0666,0.683 -0.21656,1.91575 -0.14993,1.23274 -0.44979,2.59875 z m 5.06424,-6.66348 0.69967,-0.93288 0.1999,-1.21609 -0.24988,-1.48262 h -0.05 l -0.8496,-1.03284 v -0.0833 l -0.99952,-0.26654 q -0.44978,0.1999 -0.93288,0.58305 -0.46645,0.38315 -0.94955,0.78296 l -0.24988,0.46644 q -0.1999,0.63303 -0.23322,1.41599 -0.0333,0.78296 -0.0833,1.34936 l 0.1,0.0999 0.53308,0.64969 2.03236,0.14993 z m -11.078023,4.06472 q -0.466443,-0.1999 -0.949545,-0.39981 -0.483102,-0.1999 -0.999521,-0.69966 v -0.14993 l -0.133269,-0.0666 q -0.699665,-1.14945 -0.949546,-2.49881 -0.233221,-1.34935 -0.233221,-2.83197 0.06664,-0.61637 0.199904,-1.18277 0.149928,-0.56639 0.549737,-1.09947 0.916227,-0.99952 1.982383,-1.76582 1.066156,-0.78296 2.432169,-0.5664 0.466443,0.11661 0.88291,0.38315 0.416472,0.26654 0.816272,0.81628 l 0.44979,1.09947 0.24988,0.1 0.0999,0.91623 -0.74964,1.48262 q -1.049498,1.03284 -2.248923,1.38267 -1.182767,0.34984 -2.598755,0.23323 l 0.04998,0.0666 0.03332,-0.0333 h -0.04998 v 0.99952 q -0.24988,-0.0833 -0.133269,0.33318 0.133269,0.39981 0.433126,0.91623 0.416467,0.33317 0.932886,0.51641 0.533078,0.18325 1.066156,0.26654 0.716323,-0.16658 1.349354,-0.4831 0.633025,-0.33317 1.149445,-1.0495 l 0.43313,-0.59971 h 0.71632 l 0.33317,0.63303 -0.26654,0.94955 -0.64968,0.49976 -0.19991,0.4831 q -0.916223,0.74964 -1.865768,1.14945 -0.949545,0.39981 -2.132312,0.1999 z m 1.915749,-7.06328 0.932887,-0.79962 0.04998,-0.21656 -0.316515,-1.09947 -0.51642,-0.33318 -0.09995,0.0666 -0.816275,-0.21656 q -0.716324,0.18324 -1.415989,0.683 -0.683006,0.49976 -1.26606,1.19943 -0.116611,0.26654 -0.183245,0.58305 -0.04998,0.31652 -0.333174,1.51594 l -0.416467,-1.26606 h 1.665868 v 0.24988 l 1.432647,0.0833 z M 88.3635,132.12393 q -0.466443,-0.1999 -0.949545,-0.39981 -0.483102,-0.1999 -0.999521,-0.69966 v -0.14993 l -0.13327,-0.0666 q -0.699665,-1.14945 -0.949545,-2.49881 -0.233221,-1.34935 -0.233221,-2.83197 0.06663,-0.61637 0.199904,-1.18277 0.149928,-0.56639 0.549736,-1.09947 0.916228,-0.99952 1.982384,-1.76582 1.066156,-0.78296 2.432168,-0.5664 0.466443,0.11661 0.882911,0.38315 0.416467,0.26654 0.816275,0.81628 l 0.449785,1.09947 0.24988,0.1 0.09995,0.91623 -0.749641,1.48262 q -1.049497,1.03284 -2.248922,1.38267 -1.182767,0.34984 -2.598755,0.23323 l 0.04998,0.0666 0.03332,-0.0333 h -0.04998 v 0.99952 q -0.24988,-0.0833 -0.13327,0.33318 0.13327,0.39981 0.433126,0.91623 0.416467,0.33317 0.932887,0.51641 0.533078,0.18325 1.066156,0.26654 0.716323,-0.16658 1.349353,-0.4831 0.63303,-0.33317 1.14945,-1.0495 l 0.433125,-0.59971 h 0.716324 l 0.333174,0.63303 -0.266539,0.94955 -0.649689,0.49976 -0.199904,0.4831 q -0.916228,0.74964 -1.865773,1.14945 -0.949545,0.39981 -2.132312,0.1999 z m 1.915749,-7.06328 0.932886,-0.79962 0.04998,-0.21656 -0.316515,-1.09947 -0.516419,-0.33318 -0.09995,0.0666 -0.816276,-0.21656 q -0.716323,0.18324 -1.415988,0.683 -0.683006,0.49976 -1.26606,1.19943 -0.116611,0.26654 -0.183246,0.58305 -0.04998,0.31652 -0.333173,1.51594 l -0.416468,-1.26606 h 1.665869 v 0.24988 l 1.432647,0.0833 z m -12.943799,7.74629 q -0.349833,-0.34983 -0.349833,-0.74964 0,-0.41647 0,-0.7663 l 0.08329,-5.18085 -0.08329,-0.64969 q 0.149929,-0.41647 0.166587,-0.78296 0.03332,-0.36649 0.03332,-0.74964 l -0.04998,-0.44979 q 0.166586,-1.06615 0.183245,-2.23226 0.03332,-1.16611 0.166587,-2.26558 l -0.08329,-0.2832 0.366491,-0.89957 h 0.49976 l 0.499761,0.71633 0.08329,0.53307 q -0.183245,1.24941 -0.266539,2.5821 -0.06663,1.3327 -0.08329,1.89909 h 1.066156 q -1.682528,0.91623 -0.716324,-0.21656 0.966204,-1.14945 1.549258,-1.69919 l 0.04998,-0.18324 q 0.666348,-0.74964 1.349354,-1.44931 0.699664,-0.71632 1.582575,-1.2494 l 0.599713,0.44978 v 0.7663 l -1.39933,1.29938 v 0.21656 q -0.583054,0.38315 -0.999521,0.93289 -0.399809,0.54974 -0.816276,1.01618 l -0.01666,0.11661 0.633031,1.59923 h 0.09995 q 0.699664,1.54926 1.332695,2.88196 0.63303,1.33269 1.449305,2.4988 v 0.1 l 0.09995,0.05 0.283198,0.683 -0.06663,0.0833 0.06663,0.18324 -0.63303,0.7663 h -0.499761 l -0.366491,-0.29985 -0.683006,-1.48263 -0.216563,-0.28319 q -0.732982,-1.49929 -1.399329,-3.01523 -0.649689,-1.51594 -1.032839,-2.28224 l -0.566395,0.24988 v -0.18324 l -0.849593,0.86625 -0.13327,5.59732 0.08329,0.68301 q -0.216563,0.23322 -0.433126,0.3998 -0.199904,0.18325 -0.583054,0.18325 z"
           style="font-style:normal;font-variant:normal;font-weight:normal;font-stretch:normal;line-height:122.00000286%;font-family:mikachan-puchiB;-inkscape-font-specification:mikachan-puchiB;text-align:center;text-anchor:middle;stroke-width:0.4264622"
           id="path1586"
           inkscape:connector-curvature="0" />
      </g>
      <flowRoot
         transform="matrix(1.7786105,0,0,1.7786105,-34.722926,-136.29289)"
         style="font-style:normal;font-weight:normal;font-size:40px;line-height:1.25;font-family:sans-serif;letter-spacing:0px;word-spacing:0px;fill:#000000;fill-opacity:1;stroke:none"
         id="flowRoot965"
         xml:space="preserve"><flowRegion
           id="flowRegion967"><rect
             y="276.80539"
             x="125.71429"
             height="442.85715"
             width="408.57144"
             id="rect969" /></flowRegion><flowPara
           id="flowPara971" /></flowRoot>      <circle
         inkscape:transform-center-y="-4.6913065"
         inkscape:transform-center-x="9.8090861"
         r="0.72349203"
         cy="88.151741"
         cx="113.94379"
         id="path846"
         style="opacity:1;fill:#000000;fill-opacity:1;stroke:#000006;stroke-width:1.50387537;stroke-miterlimit:4;stroke-dasharray:none;stroke-opacity:1" />
      <g
         transform="matrix(0.37657577,0.01247982,0.01666964,0.26711875,84.091056,56.247652)"
         id="g890">
        <path
           style="fill:none;stroke:#000000;stroke-width:5;stroke-linecap:butt;stroke-linejoin:miter;stroke-miterlimit:4;stroke-dasharray:none;stroke-opacity:1"
           d="m 65.44343,165.27371 c 5.054608,3.60252 9.126154,8.59576 14.839026,11.24575 2.952797,1.24285 6.050478,2.14777 9.215231,2.65226"
           id="path821"
           inkscape:connector-curvature="0" />
        <circle
           r="1.4552525"
           cy="164.26399"
           cx="64.055412"
           id="circle882"
           style="opacity:1;fill:#000000;fill-opacity:1;stroke:#000006;stroke-width:3.02493787;stroke-miterlimit:4;stroke-dasharray:none;stroke-opacity:1" />
      </g>
      <g
         transform="matrix(0.37336513,0,0,0.37336513,87.196742,38.135635)"
         id="g894">
        <path
           style="fill:none;stroke:#000000;stroke-width:4.45940065;stroke-linecap:butt;stroke-linejoin:miter;stroke-miterlimit:4;stroke-dasharray:none;stroke-opacity:1"
           d="m 59.201,99.011966 c 2.202309,7.586574 6.42993,14.559274 12.163268,20.063374 5.301182,6.33777 11.452745,12.14817 18.52853,16.50693 6.858892,3.62822 14.220992,6.11271 21.419482,8.96626 2.30418,0.55214 5.77755,0.70352 2.31705,2.89409 -4.18092,2.25537 -8.51532,4.1946 -12.56971,6.68481 -5.840446,2.52466 -4.431513,8.72391 -4.558168,13.62395 -1.847929,10.21509 -9.924161,17.45721 -15.028672,26.08212 -1.765064,2.47343 -3.77875,4.75966 -5.695123,7.11768"
           id="path819"
           inkscape:connector-curvature="0" />
        <ellipse
           style="opacity:1;fill:#000000;fill-opacity:1;stroke:#000006;stroke-width:2.41723132;stroke-miterlimit:4;stroke-dasharray:none;stroke-opacity:1"
           id="circle884"
           cx="75.764091"
           cy="201.18335"
           rx="1.1138601"
           ry="1.2140863" />
      </g>
      <ellipse
         ry="0.41958565"
         rx="0.42619112"
         style="opacity:1;fill:#000000;fill-opacity:1;stroke:#000006;stroke-width:0.87900358;stroke-miterlimit:4;stroke-dasharray:none;stroke-opacity:1"
         id="circle886"
         cx="109.3697"
         cy="75.394722" />
    </g>
  </g>
</svg>
